HIERARCHY
ROOT mixamorig:Hips
{
	OFFSET 0.000000 201.639420 0.000000
	CHANNELS 6 Xposition Yposition Zposition Xrotation Yrotation Zrotation
	JOINT mixamorig:Spine
	{
		OFFSET 0.006200 19.524994 -2.481800
		CHANNELS 3 Xrotation Yrotation Zrotation
		JOINT mixamorig:Spine1
		{
			OFFSET -0.000900 22.835007 -2.825400
			CHANNELS 3 Xrotation Yrotation Zrotation
			JOINT mixamorig:Spine2
			{
				OFFSET -0.020600 26.552490 -3.193300
				CHANNELS 3 Xrotation Yrotation Zrotation
				JOINT mixamorig:Neck
				{
					OFFSET -0.060000 30.701813 1.352200
					CHANNELS 3 Xrotation Yrotation Zrotation
					JOINT mixamorig:Head
					{
						OFFSET -0.087200 22.547607 3.670900
						CHANNELS 3 Xrotation Yrotation Zrotation
						JOINT mixamorig:HeadTop_End
						{
							OFFSET -0.830600 40.355194 7.893500
							CHANNELS 3 Xrotation Yrotation Zrotation
							End Site
							{
								OFFSET 0.000000 30.592346 0.000000
							}
						}
						JOINT mixamorig:RightEye
						{
							OFFSET -6.302100 18.118591 16.197100
							CHANNELS 3 Xrotation Yrotation Zrotation
							End Site
							{
								OFFSET 0.000000 30.592346 0.000000
							}
						}
						JOINT mixamorig:LeftEye
						{
							OFFSET 6.741500 18.382690 16.401899
							CHANNELS 3 Xrotation Yrotation Zrotation
							End Site
							{
								OFFSET 0.000000 30.592346 0.000000
							}
						}
					}
				}
				JOINT mixamorig:LeftShoulder
				{
					OFFSET 11.924900 18.230499 1.425400
					CHANNELS 3 Xrotation Yrotation Zrotation
					JOINT mixamorig:LeftArm
					{
						OFFSET 25.435989 -0.697632 -5.229300
						CHANNELS 3 Xrotation Yrotation Zrotation
						JOINT mixamorig:LeftForeArm
						{
							OFFSET 54.684776 0.000000 0.000000
							CHANNELS 3 Xrotation Yrotation Zrotation
							JOINT mixamorig:LeftHand
							{
								OFFSET 55.098175 0.000000 0.000000
								CHANNELS 3 Xrotation Yrotation Zrotation
								JOINT mixamorig:LeftHandMiddle1
								{
									OFFSET 23.369751 0.000000 0.000000
									CHANNELS 3 Xrotation Yrotation Zrotation
									JOINT mixamorig:LeftHandMiddle2
									{
										OFFSET 6.378677 0.000000 0.000000
										CHANNELS 3 Xrotation Yrotation Zrotation
										JOINT mixamorig:LeftHandMiddle3
										{
											OFFSET 6.148331 0.000000 0.000000
											CHANNELS 3 Xrotation Yrotation Zrotation
											JOINT mixamorig:LeftHandMiddle4
											{
												OFFSET 6.582504 0.000000 0.000000
												CHANNELS 3 Xrotation Yrotation Zrotation
												End Site
												{
													OFFSET -1.168900 6.395691 1.028606
												}
											}
										}
									}
								}
								JOINT mixamorig:LeftHandThumb1
								{
									OFFSET 7.235672 -3.848206 5.434273
									CHANNELS 3 Xrotation Yrotation Zrotation
									JOINT mixamorig:LeftHandThumb2
									{
										OFFSET 6.568451 -3.792297 3.792300
										CHANNELS 3 Xrotation Yrotation Zrotation
										JOINT mixamorig:LeftHandThumb3
										{
											OFFSET 6.063080 -3.500519 3.500518
											CHANNELS 3 Xrotation Yrotation Zrotation
											JOINT mixamorig:LeftHandThumb4
											{
												OFFSET 4.793182 -2.767334 2.767349
												CHANNELS 3 Xrotation Yrotation Zrotation
												End Site
												{
													OFFSET 0.101639 6.054260 1.275483
												}
											}
										}
									}
								}
								JOINT mixamorig:LeftHandIndex1
								{
									OFFSET 23.101074 -0.309540 4.992809
									CHANNELS 3 Xrotation Yrotation Zrotation
									JOINT mixamorig:LeftHandIndex2
									{
										OFFSET 6.226883 0.000000 0.000000
										CHANNELS 3 Xrotation Yrotation Zrotation
										JOINT mixamorig:LeftHandIndex3
										{
											OFFSET 6.094330 0.000000 0.000000
											CHANNELS 3 Xrotation Yrotation Zrotation
											JOINT mixamorig:LeftHandIndex4
											{
												OFFSET 5.482605 0.000000 0.000000
												CHANNELS 3 Xrotation Yrotation Zrotation
												End Site
												{
													OFFSET -1.427902 5.233032 0.797164
												}
											}
										}
									}
								}
								JOINT mixamorig:LeftHandRing1
								{
									OFFSET 22.299240 0.021149 -3.964172
									CHANNELS 3 Xrotation Yrotation Zrotation
									JOINT mixamorig:LeftHandRing2
									{
										OFFSET 6.321869 0.000000 0.000000
										CHANNELS 3 Xrotation Yrotation Zrotation
										JOINT mixamorig:LeftHandRing3
										{
											OFFSET 5.899796 0.000000 0.000000
											CHANNELS 3 Xrotation Yrotation Zrotation
											JOINT mixamorig:LeftHandRing4
											{
												OFFSET 6.517899 0.000000 0.000000
												CHANNELS 3 Xrotation Yrotation Zrotation
												End Site
												{
													OFFSET -1.637299 6.232208 0.980890
												}
											}
										}
									}
								}
								JOINT mixamorig:LeftHandPinky1
								{
									OFFSET 20.463791 -0.302338 -8.562233
									CHANNELS 3 Xrotation Yrotation Zrotation
									JOINT mixamorig:LeftHandPinky2
									{
										OFFSET 6.908646 0.000000 0.000000
										CHANNELS 3 Xrotation Yrotation Zrotation
										JOINT mixamorig:LeftHandPinky3
										{
											OFFSET 4.622849 0.000000 0.000000
											CHANNELS 3 Xrotation Yrotation Zrotation
											JOINT mixamorig:LeftHandPinky4
											{
												OFFSET 5.216080 0.000000 0.000000
												CHANNELS 3 Xrotation Yrotation Zrotation
												End Site
												{
													OFFSET -0.606308 5.116241 0.814926
												}
											}
										}
									}
								}
							}
						}
					}
				}
				JOINT mixamorig:RightShoulder
				{
					OFFSET -12.001300 18.284088 1.348900
					CHANNELS 3 Xrotation Yrotation Zrotation
					JOINT mixamorig:RightArm
					{
						OFFSET -25.308500 -0.751312 -5.164599
						CHANNELS 3 Xrotation Yrotation Zrotation
						JOINT mixamorig:RightForeArm
						{
							OFFSET -54.684429 0.000000 0.000000
							CHANNELS 3 Xrotation Yrotation Zrotation
							JOINT mixamorig:RightHand
							{
								OFFSET -55.150291 0.000000 0.000000
								CHANNELS 3 Xrotation Yrotation Zrotation
								JOINT mixamorig:RightHandMiddle1
								{
									OFFSET -23.317566 0.000000 0.000000
									CHANNELS 3 Xrotation Yrotation Zrotation
									JOINT mixamorig:RightHandMiddle2
									{
										OFFSET -6.378403 0.000000 0.000000
										CHANNELS 3 Xrotation Yrotation Zrotation
										JOINT mixamorig:RightHandMiddle3
										{
											OFFSET -6.148193 0.000000 0.000000
											CHANNELS 3 Xrotation Yrotation Zrotation
											JOINT mixamorig:RightHandMiddle4
											{
												OFFSET -6.583389 0.000000 0.000000
												CHANNELS 3 Xrotation Yrotation Zrotation
												End Site
												{
													OFFSET 1.171692 6.395905 1.029786
												}
											}
										}
									}
								}
								JOINT mixamorig:RightHandThumb1
								{
									OFFSET -7.190521 -3.860474 5.435846
									CHANNELS 3 Xrotation Yrotation Zrotation
									JOINT mixamorig:RightHandThumb2
									{
										OFFSET -6.567429 -3.791718 3.791708
										CHANNELS 3 Xrotation Yrotation Zrotation
										JOINT mixamorig:RightHandThumb3
										{
											OFFSET -6.062469 -3.500153 3.500166
											CHANNELS 3 Xrotation Yrotation Zrotation
											JOINT mixamorig:RightHandThumb4
											{
												OFFSET -4.792618 -2.767029 2.767022
												CHANNELS 3 Xrotation Yrotation Zrotation
												End Site
												{
													OFFSET -0.100327 6.053253 1.276754
												}
											}
										}
									}
								}
								JOINT mixamorig:RightHandIndex1
								{
									OFFSET -23.048981 -0.310791 4.992554
									CHANNELS 3 Xrotation Yrotation Zrotation
									JOINT mixamorig:RightHandIndex2
									{
										OFFSET -6.227539 0.000000 0.000000
										CHANNELS 3 Xrotation Yrotation Zrotation
										JOINT mixamorig:RightHandIndex3
										{
											OFFSET -6.095047 0.000000 0.000000
											CHANNELS 3 Xrotation Yrotation Zrotation
											JOINT mixamorig:RightHandIndex4
											{
												OFFSET -5.484772 0.000000 0.000000
												CHANNELS 3 Xrotation Yrotation Zrotation
												End Site
												{
													OFFSET 1.420593 5.237305 0.797056
												}
											}
										}
									}
								}
								JOINT mixamorig:RightHandRing1
								{
									OFFSET -22.246323 0.020569 -3.963762
									CHANNELS 3 Xrotation Yrotation Zrotation
									JOINT mixamorig:RightHandRing2
									{
										OFFSET -6.322128 0.000000 0.000000
										CHANNELS 3 Xrotation Yrotation Zrotation
										JOINT mixamorig:RightHandRing3
										{
											OFFSET -5.900024 0.000000 0.000000
											CHANNELS 3 Xrotation Yrotation Zrotation
											JOINT mixamorig:RightHandRing4
											{
												OFFSET -6.518356 0.000000 0.000000
												CHANNELS 3 Xrotation Yrotation Zrotation
												End Site
												{
													OFFSET 1.636398 6.232697 0.982186
												}
											}
										}
									}
								}
								JOINT mixamorig:RightHandPinky1
								{
									OFFSET -20.411011 -0.303314 -8.561701
									CHANNELS 3 Xrotation Yrotation Zrotation
									JOINT mixamorig:RightHandPinky2
									{
										OFFSET -6.907349 0.000000 0.000000
										CHANNELS 3 Xrotation Yrotation Zrotation
										JOINT mixamorig:RightHandPinky3
										{
											OFFSET -4.623840 0.000000 0.000000
											CHANNELS 3 Xrotation Yrotation Zrotation
											JOINT mixamorig:RightHandPinky4
											{
												OFFSET -5.218353 0.000000 0.000000
												CHANNELS 3 Xrotation Yrotation Zrotation
												End Site
												{
													OFFSET 0.602097 5.118835 0.816273
												}
											}
										}
									}
								}
							}
						}
					}
				}
			}
		}
	}
	JOINT mixamorig:LeftUpLeg
	{
		OFFSET 18.168400 -13.561905 -0.039000
		CHANNELS 3 Xrotation Yrotation Zrotation
		JOINT mixamorig:LeftLeg
		{
			OFFSET 0.577358 -80.825211 -3.695000
			CHANNELS 3 Xrotation Yrotation Zrotation
			JOINT mixamorig:LeftFoot
			{
				OFFSET -0.577356 -83.370262 -6.520700
				CHANNELS 3 Xrotation Yrotation Zrotation
				JOINT mixamorig:LeftToeBase
				{
					OFFSET 0.750401 -20.798306 25.135401
					CHANNELS 3 Xrotation Yrotation Zrotation
					JOINT mixamorig:LeftToe_End
					{
						OFFSET -0.000500 0.001200 19.917799
						CHANNELS 3 Xrotation Yrotation Zrotation
						End Site
						{
							OFFSET 0.000000 19.917805 0.000000
						}
					}
				}
			}
		}
	}
	JOINT mixamorig:RightUpLeg
	{
		OFFSET -18.162500 -13.585098 -0.041000
		CHANNELS 3 Xrotation Yrotation Zrotation
		JOINT mixamorig:RightLeg
		{
			OFFSET -0.595024 -80.945297 -3.631900
			CHANNELS 3 Xrotation Yrotation Zrotation
			JOINT mixamorig:RightFoot
			{
				OFFSET 0.595024 -83.218193 -6.561200
				CHANNELS 3 Xrotation Yrotation Zrotation
				JOINT mixamorig:RightToeBase
				{
					OFFSET -0.753601 -20.807106 25.115000
					CHANNELS 3 Xrotation Yrotation Zrotation
					JOINT mixamorig:RightToe_End
					{
						OFFSET 0.000299 0.001700 19.918200
						CHANNELS 3 Xrotation Yrotation Zrotation
						End Site
						{
							OFFSET 0.000000 19.918203 0.000000
						}
					}
				}
			}
		}
	}
}
MOTION
Frames: 4
Frame Time: 0.033333
-8.121613 158.048447 -2.293543 -6.911015 4.263068 -10.137231 8.158296 -9.386314 0.143806 4.550896 -1.138445 7.767323 4.683137 -1.063263 7.696781 0.691489 -4.439917 1.637015 -8.508221 -8.636036 -15.335971 0.000000 0.000002 0.000001 0.000000 0.000002 0.000001 0.000000 0.000002 0.000001 0.842953 -10.671161 -5.516544 48.098107 -20.065398 -29.583257 -0.000012 -45.723291 -0.000009 12.031129 0.015467 5.828016 0.010894 0.387930 -3.216479 0.065614 0.950114 -7.898745 0.092038 1.124412 -9.359920 -0.000000 0.000003 -0.000001 -2.070121 20.070361 8.690518 4.272244 11.917714 1.052380 -0.579460 1.574992 2.538714 0.000001 -0.000000 -0.000004 0.025327 0.591275 -4.905799 0.038210 0.725808 -6.025797 0.045623 0.792991 -6.585814 -0.000000 0.000001 -0.000001 0.005527 0.276349 -2.290689 0.119809 1.281506 -10.682547 0.178546 1.560868 -13.049528 0.000001 0.000001 0.000000 0.119814 4.280913 -1.386191 0.251571 -2.203325 -16.044200 0.291990 1.987675 -16.713034 -0.000001 -0.000002 0.000002 0.583409 14.994097 13.942025 19.556553 -6.880816 35.128155 -0.000010 54.254791 0.000014 2.759041 -6.469394 -4.709406 0.006051 -0.350860 4.503452 0.058760 -0.903915 7.438656 -0.373485 -1.069589 8.266090 0.000001 -0.000002 -0.000001 -3.238732 -15.924036 -12.327225 5.225001 -15.134685 -0.677707 -1.273754 0.137316 -2.094865 0.000000 -0.000000 -0.000000 -0.427115 3.639243 6.352607 0.043200 -0.775535 6.377343 0.047155 -0.810005 6.662068 -0.000001 -0.000001 -0.000001 0.293835 -4.499254 3.705438 0.090172 -1.118459 9.218514 -0.556740 -1.396672 10.482172 0.000000 -0.000000 -0.000002 0.710465 -9.617570 3.807414 0.158755 -1.480248 12.242001 0.170782 -1.534643 12.699538 -0.000002 0.000001 0.000001 -35.590804 -3.744255 32.020197 78.205038 -7.097098 9.688161 -34.597442 5.840691 -19.330183 -5.199496 0.000001 0.000000 -0.000000 0.000003 0.000000 -31.161430 -16.052012 -9.706479 77.386658 -4.563424 -4.041794 -36.976889 -0.990690 13.953205 -6.408411 0.000009 0.000001 0.000001 -0.000001 -0.000000 
-4.984205 155.414963 -3.010956 -11.707947 0.208528 -6.124742 13.494780 -5.380058 -0.027846 4.250628 -0.729583 4.480085 4.310117 -0.646358 4.444559 1.488284 -3.656151 0.922424 0.681068 -12.335457 -9.913430 -0.000001 0.000000 0.000000 -0.000001 0.000000 0.000000 -0.000001 0.000000 0.000000 0.701953 -9.971206 -7.511424 49.074055 -15.686721 -25.303185 -0.000003 -46.275235 -0.000009 13.732890 -3.964129 6.353888 0.012165 0.409853 -3.359597 0.067163 0.961262 -7.992084 0.093036 1.130430 -9.410633 -0.000000 0.000001 -0.000000 -2.070129 20.070364 8.690502 4.272244 11.917716 1.052376 -0.579463 1.575001 2.538715 0.000002 0.000001 -0.000002 0.029283 0.635757 -5.207081 0.040146 0.743970 -6.176920 0.046678 0.802048 -6.661401 -0.000000 0.000002 0.000002 0.005694 0.280371 -2.306726 0.119778 1.281384 -10.681466 0.178467 1.560570 -13.047262 0.000000 -0.000000 0.000002 0.111935 4.268430 -1.280504 0.249099 -2.212002 -15.969805 0.290707 1.983367 -16.675755 0.000000 0.000000 0.000002 0.472459 17.543932 14.176796 24.749870 -9.302766 40.380143 -0.000017 59.947778 0.000000 6.470617 -3.693688 -8.501912 0.004351 -0.315186 4.210307 0.055829 -0.881254 7.251192 -0.414099 -1.062175 8.164434 -0.000001 -0.000002 0.000001 -3.238734 -15.924064 -12.327249 5.225002 -15.134682 -0.677715 -1.273756 0.137315 -2.094867 -0.000004 -0.000001 -0.000001 -0.379443 3.734657 5.611303 0.038336 -0.730691 6.007070 0.044564 -0.787596 6.476951 0.000003 -0.000000 -0.000001 0.301121 -4.510046 3.798212 0.092064 -1.130032 9.314829 -0.595484 -1.411699 10.538596 -0.000004 0.000001 0.000001 0.794433 -9.671219 4.308627 0.166717 -1.516503 12.546700 0.174893 -1.552735 12.851888 -0.000002 -0.000000 0.000000 -28.739834 -0.941139 26.438397 80.579293 -5.466969 8.647143 -36.971592 12.327763 -18.182681 -3.995218 0.000014 -0.000004 0.000000 0.000001 0.000000 -29.899447 -8.980229 -15.192422 81.615187 -2.630093 -0.364241 -38.274700 0.432326 13.183436 -5.073439 -0.000002 0.000000 -0.000000 -0.000002 -0.000000 
-1.559983 153.415878 -3.387283 -14.476284 -7.663232 -1.023251 14.531161 1.619815 -1.661514 4.044566 0.216962 -0.027599 4.081376 0.237369 -0.020218 1.497552 -3.164947 0.398483 5.905102 -14.164636 -4.218445 0.000000 0.000003 -0.000000 0.000000 0.000003 -0.000000 0.000000 0.000003 -0.000000 0.700939 -8.413661 -7.397296 43.362467 -12.902234 -23.195758 -0.000011 -42.832605 -0.000004 18.526354 -7.120050 6.191561 0.013454 0.431283 -3.594765 0.070099 0.981926 -8.165224 0.094962 1.141975 -9.507713 -0.000001 0.000001 -0.000000 -2.070132 20.070364 8.690517 4.272247 11.917724 1.052376 -0.579461 1.574992 2.538714 0.000001 0.000001 0.000001 0.031723 0.661398 -5.522378 0.042191 0.762769 -6.333868 0.047784 0.811448 -6.739866 0.000000 0.000002 0.000001 0.006611 0.302491 -2.515672 0.123639 1.301577 -10.851900 0.181141 1.572034 -13.144886 -0.000000 -0.000000 -0.000002 0.129268 4.295848 -1.512536 0.254567 -2.192980 -16.133163 0.293535 1.992799 -16.757603 0.000001 0.000000 0.000000 0.476652 18.406106 13.729590 29.406205 -6.505129 45.359040 0.000009 59.991239 -0.000005 9.320372 0.002271 -8.251868 0.001378 -0.240438 3.596884 0.049497 -0.829835 6.825961 -0.443739 -1.035366 7.929161 -0.000001 -0.000000 -0.000001 -3.238720 -15.924055 -12.327218 5.224999 -15.134676 -0.677713 -1.273762 0.137314 -2.094870 0.000003 0.000000 0.000006 -0.311528 3.865555 4.586667 0.032099 -0.668661 5.495383 0.041119 -0.756605 6.221111 -0.000000 -0.000000 0.000000 0.274323 -4.470198 3.455899 0.087336 -1.100817 9.071915 -0.624673 -1.398536 10.402704 0.000005 -0.000001 0.000002 0.768600 -9.654793 4.154620 0.164241 -1.505370 12.453087 0.173634 -1.547180 12.805070 0.000003 -0.000000 -0.000001 -21.710081 1.737831 20.231601 80.801022 -1.361570 2.745440 -38.758243 15.959135 -17.901332 -0.636422 -0.000000 0.000001 -0.000000 0.000002 0.000000 -32.422522 -1.275882 -20.546187 84.954904 -3.150907 -2.122660 -37.823856 4.420149 15.764148 -2.925711 0.000002 -0.000001 0.000000 -0.000001 -0.000000 
-0.826360 152.553223 -3.624153 -12.303985 -16.943654 3.765210 12.615229 8.960611 -4.662616 3.835738 1.254549 -3.763132 3.883037 1.217283 -3.716023 0.921238 -2.866239 0.188417 7.605225 -14.001302 -0.274080 -0.000000 0.000002 -0.000000 -0.000000 0.000002 -0.000000 -0.000000 0.000002 -0.000000 0.699357 -6.865736 -6.355235 33.067630 -13.035051 -22.165511 0.000010 -33.147799 0.000004 22.198313 -7.624065 7.812039 0.015171 0.457620 -3.820147 0.073180 1.003335 -8.344307 0.097013 1.154098 -9.609707 -0.000000 -0.000000 0.000000 -2.070117 20.070352 8.690512 4.272247 11.917714 1.052377 -0.579467 1.574996 2.538717 0.000002 -0.000001 -0.000000 0.033848 0.683160 -5.715440 0.043491 0.774341 -6.430333 0.048478 0.817213 -6.788094 -0.000002 -0.000002 0.000001 0.008359 0.339616 -2.826657 0.129801 1.333343 -11.120181 0.185427 1.590280 -13.300203 -0.000001 -0.000000 0.000002 0.164574 4.351017 -1.981053 0.265748 -2.154748 -16.462895 0.299325 2.011871 -16.922931 0.000000 -0.000001 -0.000000 0.517247 18.200038 13.261671 31.698706 -0.153059 46.248939 0.000009 56.198032 0.000014 9.814235 1.565705 -3.967491 -0.000859 -0.162981 2.961223 0.043110 -0.774635 6.369821 -0.448179 -1.002352 7.674804 0.000002 0.000001 -0.000003 -3.238728 -15.924050 -12.327226 5.224997 -15.134678 -0.677701 -1.273753 0.137313 -2.094872 0.000006 0.000002 0.000001 -0.255960 3.968524 3.773306 0.027528 -0.619393 5.089386 0.038476 -0.732019 6.018083 -0.000000 -0.000000 0.000001 0.227327 -4.399050 2.848179 0.078703 -1.045286 8.610499 -0.630092 -1.363732 10.142099 0.000004 0.000001 -0.000002 0.647159 -9.576444 3.427664 0.152843 -1.452758 12.011075 0.167714 -1.520917 12.584059 -0.000001 0.000001 0.000000 -19.413674 4.395588 17.463221 79.565598 -0.649067 -5.384258 -39.407367 18.739162 -16.316977 -0.000040 0.000002 0.000009 0.000000 0.000002 0.000000 -39.168959 5.538277 -19.873627 86.732406 -5.200768 -7.148501 -36.893202 6.399766 18.389731 -3.385729 -0.000008 -0.000003 -0.000000 0.000000 -0.000000 
